<svg xmlns="http://www.w3.org/2000/svg" viewBox="0 0 721.695 109"><path fill="none" d="M-20.47 19.439h762.195v70.377H-20.47z"/><path d="M57.96 57.539l.648-5.85H37.205l.65 5.85h-4.5l-1.05-10.4h4.7c1.166-1.2 1.916-2.675 2.25-4.425.333-1.75.583-3.658.75-5.725.1-1.266.232-2.558.399-3.875a20.91 20.91 0 0 1 .848-3.825c.398-1.233.947-2.4 1.646-3.5.698-1.1 1.646-2.058 2.843-2.875 1.197-.816 2.677-1.466 4.439-1.95 1.762-.483 3.906-.725 6.434-.725h3.143v26.85h4.15l-1.5 10.4-4.447.05zm-2.605-10.301v-22.65c-2.478.1-4.412.484-5.801 1.152-1.39.669-2.445 1.57-3.165 2.707-.72 1.136-1.197 2.456-1.431 3.959a62.068 62.068 0 0 0-.552 4.96 91.273 91.273 0 0 1-.643 4.911 20.14 20.14 0 0 1-1.384 4.811l12.976.15zm42.55 4.45h-21.9v-31.4h21.05v4.45h-16.65v8.75c.9.334 1.767.5 2.6.5 1.1 0 2.133-.166 3.1-.5.966-.333 1.95-.5 2.95-.5.833 0 1.617.184 2.35.55v4.6c-.867-.3-1.684-.45-2.45-.45-1.034 0-2.034.134-3 .4-.967.267-2 .4-3.1.4-.8 0-1.617-.116-2.45-.35v9.2h17.5v4.35zm30.85-10.399a88.888 88.888 0 0 0 1.725 3.375c.55 1.017 1.133 1.892 1.75 2.625.616.733 1.292 1.3 2.025 1.7.733.4 1.6.6 2.6.6v4.35c-1.7 0-3.175-.333-4.425-1a11.967 11.967 0 0 1-3.275-2.55 17.502 17.502 0 0 1-2.425-3.45c-.684-1.267-1.325-2.5-1.925-3.7a35.21 35.21 0 0 0-1.8-3.5c-.5.367-1 .675-1.5.925s-1 .442-1.5.575c-.367.167-.809.284-1.325.35a19.95 19.95 0 0 0-1.275.2v9.9h-4.35v-9.95a4.868 4.868 0 0 1-1.239-.425 4.76 4.76 0 0 1-.935-.625 5.558 5.558 0 0 1-1.77-2.125 6.253 6.253 0 0 1-.606-2.725v-.3c.067-1.1.396-2.108.985-3.025a5.982 5.982 0 0 1 2.35-2.125c.169-.066.363-.15.582-.25.219-.1.48-.183.784-.25v-9.65h4.3v9.85c.498.134 1.12.325 1.867.575s1.419.575 2.017.975c.431.267.83.542 1.195.825.365.284.729.592 1.095.925.331-.367.655-.75.97-1.15.315-.4.639-.816.972-1.25 1.261-1.766 2.215-3.575 2.863-5.425.647-1.85.971-3.608.971-5.275h4.4c0 2.133-.4 4.325-1.2 6.575-.8 2.25-1.95 4.459-3.45 6.625a58.298 58.298 0 0 1-1.4 1.825c-.467.583-.95 1.125-1.45 1.625.466.7.891 1.417 1.275 2.15.381.733.756 1.467 1.124 2.2zm-13.607-3.25c.398 0 .854-.05 1.37-.15.515-.1 1.03-.233 1.544-.4a16.242 16.242 0 0 0 1.521-.575c.499-.216.913-.425 1.246-.625-.698-.633-1.604-1.191-2.716-1.675-1.113-.482-2.168-.725-3.165-.725-.598 0-1.088.2-1.47.6-.382.4-.573.9-.573 1.5 0 .134.017.309.05.525.033.217.124.434.274.65.149.217.374.409.673.575.298.167.714.267 1.246.3zm45.606 14.199c-2.267 0-4.392-.425-6.375-1.275-1.984-.85-3.708-2.016-5.175-3.5a17.08 17.08 0 0 1-3.5-5.175c-.867-1.966-1.3-4.083-1.3-6.35 0-2.233.433-4.333 1.3-6.3a17.092 17.092 0 0 1 3.5-5.175 16.135 16.135 0 0 1 5.175-3.5c1.983-.85 4.108-1.275 6.375-1.275 2.266 0 4.4.425 6.4 1.275s3.741 2.017 5.225 3.5a16.879 16.879 0 0 1 3.525 5.175c.866 1.967 1.3 4.067 1.3 6.3 0 2.267-.434 4.384-1.3 6.35a16.867 16.867 0 0 1-3.525 5.175c-1.484 1.484-3.225 2.65-5.225 3.5s-4.134 1.275-6.4 1.275zm.025-28.199c-1.663 0-3.219.317-4.666.95a12.474 12.474 0 0 0-3.792 2.55c-1.081 1.067-1.938 2.325-2.569 3.775s-.948 2.992-.948 4.625c0 1.667.316 3.225.948 4.675a11.944 11.944 0 0 0 2.569 3.775 12.462 12.462 0 0 0 3.792 2.55c1.447.634 3.002.95 4.666.95 1.696 0 3.276-.316 4.74-.95a12.35 12.35 0 0 0 3.817-2.55 11.604 11.604 0 0 0 2.544-3.775c.616-1.45.923-3.008.923-4.675 0-1.633-.308-3.175-.923-4.625s-1.463-2.708-2.544-3.775a12.38 12.38 0 0 0-3.817-2.55c-1.464-.634-3.044-.95-4.74-.95zm42.875-4.051c3.8.234 6.625 1.417 8.475 3.55 1.85 2.133 2.775 5.017 2.775 8.65 0 1.5-.325 2.892-.975 4.175a11.009 11.009 0 0 1-2.65 3.375c-1.117.967-2.417 1.725-3.9 2.275-1.484.55-3.042.825-4.675.825h-6.9v8.85h-4.4v-26.45c-.567-.033-1.1-.083-1.6-.15-.5-.066-1-.2-1.5-.4v-4.2c.667.167 1.358.284 2.075.35.716.067 1.375.1 1.975.1.867 0 1.708-.05 2.525-.15.816-.1 1.641-.2 2.475-.3a29.077 29.077 0 0 1 2.55-.375 27.31 27.31 0 0 1 2.7-.125h1.05zm7.299 11.974c0-.897-.083-1.785-.25-2.666a5.55 5.55 0 0 0-1.05-2.367c-.534-.697-1.3-1.279-2.3-1.744-1-.465-2.333-.747-4-.847-.934 0-2.042.034-3.325.1-1.284.066-2.692.282-4.225.647v13.402h6.9c1.1 0 2.133-.149 3.1-.448.966-.298 1.825-.739 2.575-1.32s1.35-1.271 1.8-2.067.709-1.693.775-2.69zm31.101-11.724c1.933 4.867 3.75 9.4 5.45 13.6.7 1.8 1.417 3.609 2.15 5.425a2260.57 2260.57 0 0 0 2.075 5.125c.65 1.6 1.232 3.033 1.75 4.3.516 1.267.908 2.25 1.175 2.95h-4.65c-.7-1.8-1.409-3.592-2.125-5.375a420.09 420.09 0 0 1-2.175-5.525 12.175 12.175 0 0 0-3.45-.5c-.867 0-1.725.067-2.575.2-.85.134-1.708.267-2.575.4l-3.85.6-4.15 10.2h-4.7l4.15-10.4a15.24 15.24 0 0 1-1.825-.45c-.65-.2-1.292-.466-1.925-.8v-5c1 .634 1.941 1.117 2.825 1.45.883.333 1.741.55 2.575.65l6.8-16.85h5.05zm-5.8 16.392c.066 0 .108-.008.125-.024.016-.016.058-.025.125-.025a88.164 88.164 0 0 1 2.7-.469 18.164 18.164 0 0 1 2.85-.223 15.034 15.034 0 0 1 1.7.1l-.3-.955-3.85-9.595-4.6 11.389c.2-.066.408-.099.625-.099.216 0 .425-.034.625-.099zm52.399-16.341a10.714 10.714 0 0 1-.525 3.075 7.587 7.587 0 0 1-1.375 2.5c-.6.717-1.358 1.284-2.275 1.7-.917.417-1.975.625-3.175.625-.967 0-1.9-.091-2.8-.275-.9-.183-1.867-.458-2.9-.825v24.6h-4.4v-26.35c-.734-.266-1.5-.483-2.3-.65-.8-.167-1.6-.25-2.4-.25-.867 0-1.659.15-2.375.45-.717.3-1.092.967-1.125 2h-4.25c0-1.1.208-2.066.625-2.9a6.03 6.03 0 0 1 1.675-2.075c.7-.55 1.525-.966 2.475-1.25.95-.283 1.975-.425 3.075-.425 1.667 0 3.158.192 4.475.575 1.316.384 2.533.809 3.65 1.275 1.116.467 2.2.892 3.25 1.275a9.457 9.457 0 0 0 3.275.575c.633 0 1.15-.066 1.55-.2.4-.133.708-.341.925-.625.216-.283.366-.658.45-1.125.083-.466.142-1.033.175-1.7h4.3zm91.15-.301c3.801.234 6.625 1.417 8.476 3.55 1.85 2.133 2.774 5.017 2.774 8.65 0 1.5-.324 2.892-.975 4.175a10.994 10.994 0 0 1-2.65 3.375c-1.117.967-2.417 1.725-3.899 2.275-1.483.55-3.042.825-4.675.825h-6.9v8.85h-4.4v-26.45c-.566-.033-1.1-.083-1.6-.15-.5-.066-1-.2-1.5-.4v-4.2c.666.167 1.357.284 2.075.35.716.067 1.375.1 1.975.1.866 0 1.708-.05 2.525-.15.816-.1 1.642-.2 2.475-.3a29.021 29.021 0 0 1 2.55-.375 27.31 27.31 0 0 1 2.7-.125h1.049zm7.3 11.974c0-.897-.084-1.785-.25-2.666a5.563 5.563 0 0 0-1.051-2.367c-.533-.697-1.3-1.279-2.3-1.744-1-.465-2.333-.747-4-.847-.934 0-2.042.034-3.325.1s-2.691.282-4.225.647v13.402h6.9c1.1 0 2.133-.149 3.1-.448.967-.298 1.825-.739 2.575-1.32s1.35-1.271 1.8-2.067.709-1.693.776-2.69zm30.969-1.224c1.471 0 2.867.217 4.188.65 1.32.434 2.473 1.075 3.459 1.925s1.763 1.917 2.331 3.2.853 2.758.853 4.425c0 1.567-.293 3.009-.877 4.325a10.33 10.33 0 0 1-2.405 3.4c-1.019.95-2.222 1.692-3.607 2.225-1.387.533-2.865.8-4.436.8h-11.524v-15.95c-.301 0-.559-.025-.775-.075-.217-.05-.425-.1-.625-.15a7.05 7.05 0 0 1-.65-.2 18.086 18.086 0 0 0-.85-.275v-4.6c.566.267 1.041.475 1.425.625.383.15.875.259 1.476.325v-11.15h4.399v11.05c1.805-.233 3.316-.383 4.537-.45a58.62 58.62 0 0 1 3.081-.1zm-.519 16.6c.866 0 1.716-.141 2.55-.425a6.794 6.794 0 0 0 2.225-1.25 6.395 6.395 0 0 0 1.575-2c.4-.783.6-1.675.6-2.675 0-2-.625-3.5-1.875-4.5s-2.824-1.5-4.725-1.5c-1.1 0-2.325.067-3.675.2a108.15 108.15 0 0 0-3.525.4c-.067 0-.108.009-.125.025-.017.018-.059.025-.125.025v11.7h7.1zm20.349-27.15v31.45h-4.4v-31.45h4.4zm80.601 10.063a32.962 32.962 0 0 1-1.801 2.806 12.635 12.635 0 0 1-2.449 2.556c1 .801 1.824 1.654 2.475 2.555.65.902 1.225 1.796 1.725 2.682.5.885.992 1.736 1.476 2.555.482.819 1.05 1.545 1.7 2.18a7.089 7.089 0 0 0 2.35 1.503c.916.367 2.092.551 3.525.551v4.35c-2 0-3.692-.267-5.075-.8-1.384-.533-2.559-1.208-3.525-2.025-.967-.816-1.774-1.725-2.425-2.725s-1.242-1.983-1.775-2.95c-.5-.9-.983-1.708-1.449-2.425-.468-.716-.959-1.316-1.476-1.8a5.59 5.59 0 0 0-1.8-1.125c-.684-.267-1.509-.4-2.475-.4v14h-4.301v-14c-.967 0-1.8.134-2.5.4a5.832 5.832 0 0 0-1.85 1.125c-.533.483-1.033 1.083-1.5 1.8-.467.717-.95 1.525-1.45 2.425a47.931 47.931 0 0 1-1.774 2.95 12.42 12.42 0 0 1-2.426 2.725c-.967.817-2.142 1.492-3.524 2.025-1.384.533-3.075.8-5.075.8v-4.35c1.433 0 2.625-.191 3.575-.576.95-.384 1.75-.885 2.399-1.503a9.163 9.163 0 0 0 1.676-2.18c.466-.835.957-1.695 1.475-2.581a38.348 38.348 0 0 1 1.725-2.681c.633-.901 1.45-1.754 2.45-2.556-.967-.734-1.759-1.52-2.375-2.354a24.97 24.97 0 0 1-1.649-2.53 85.167 85.167 0 0 0-1.45-2.456 8.93 8.93 0 0 0-1.726-2.054c-.667-.584-1.475-1.061-2.425-1.428s-2.158-.552-3.625-.552v-4.35c2.366 0 4.292.333 5.775 1 1.482.667 2.716 1.5 3.7 2.5.982 1 1.808 2.083 2.475 3.25a47.56 47.56 0 0 0 2.025 3.25c.683 1 1.491 1.842 2.425 2.525.933.684 2.149 1.025 3.649 1.025v-13.1h4.301v13.1c1.5-.033 2.716-.392 3.649-1.075.933-.683 1.75-1.525 2.45-2.525s1.383-2.075 2.05-3.225 1.483-2.225 2.45-3.225 2.191-1.825 3.675-2.475c1.483-.65 3.392-.975 5.726-.975v4.4c-1.367 0-2.5.151-3.4.451-.9.301-1.684.719-2.35 1.253a8.676 8.676 0 0 0-1.75 1.904 48.08 48.08 0 0 0-1.501 2.355zm48.549-10.013v31.55h-4.4v-24.15l-18.5 24.15h-4.05v-31.55h4.4v23.7l18.35-23.7h4.2zm36.3 13.6c1.267 1.167 2.166 2.35 2.7 3.55.532 1.2.8 2.4.8 3.6 0 1.734-.375 3.292-1.125 4.675a11.24 11.24 0 0 1-3.025 3.55c-1.267.984-2.742 1.734-4.425 2.25a18.044 18.044 0 0 1-5.325.775c-1.767 0-3.509-.262-5.225-.783-1.718-.523-3.25-1.298-4.601-2.325a11.699 11.699 0 0 1-3.25-3.816c-.816-1.517-1.225-3.275-1.225-5.275 0-.167.008-.308.025-.425.016-.116.024-.258.024-.425v-.25h4.4v.5c-.034.167-.05.4-.05.7 0 1.2.315 2.275.947 3.225.631.95 1.463 1.768 2.494 2.45 1.03.684 2.193 1.2 3.49 1.55 1.297.35 2.594.525 3.891.525.931 0 1.911-.174 2.942-.521a10.89 10.89 0 0 0 2.842-1.439 8.37 8.37 0 0 0 2.12-2.133c.548-.811.823-1.663.823-2.557 0-.566-.101-1.107-.3-1.625-.2-.516-.534-1.058-1-1.625a11.387 11.387 0 0 1-3.825 2.45 12.32 12.32 0 0 1-4.525.85c-.899 0-1.774-.108-2.625-.325a7.165 7.165 0 0 1-2.3-1.025 5.33 5.33 0 0 1-1.65-1.8c-.417-.733-.625-1.6-.625-2.6 0-1.1.217-2.033.65-2.8.433-.766 1.008-1.383 1.725-1.85s1.525-.808 2.426-1.025a11.733 11.733 0 0 1 2.75-.325c1.232 0 2.375.15 3.425.45 1.05.3 2.058.717 3.024 1.25.133-.4.25-.758.351-1.075.1-.316.149-.642.149-.975 0-.866-.191-1.633-.574-2.3a5.524 5.524 0 0 0-1.525-1.7 6.791 6.791 0 0 0-2.175-1.05 9.164 9.164 0 0 0-2.525-.35c-.967 0-1.942.108-2.925.325a8.079 8.079 0 0 0-2.7 1.125c-.817.534-1.483 1.225-2 2.075s-.774 1.892-.774 3.125H580.5c0-1.9.351-3.525 1.051-4.875.699-1.35 1.616-2.466 2.75-3.35 1.133-.883 2.433-1.533 3.899-1.95 1.467-.417 2.95-.625 4.45-.625s2.958.208 4.375.625c1.416.417 2.666 1.025 3.75 1.825a9.577 9.577 0 0 1 2.625 2.925c.666 1.15 1 2.458 1 3.925 0 .767-.059 1.542-.175 2.325-.115.783-.407 1.642-.873 2.574zm-5.15 1.301c-.2-.233-.5-.467-.899-.7a7.79 7.79 0 0 0-1.301-.6 12.699 12.699 0 0 0-1.475-.425 6.499 6.499 0 0 0-1.425-.175c-.733 0-1.442.175-2.125.525-.684.35-1.025.858-1.025 1.525 0 .7.358 1.208 1.075 1.525.717.317 1.425.475 2.125.475.467 0 .958-.066 1.475-.2.517-.133 1.008-.3 1.476-.5.466-.2.883-.425 1.25-.675.366-.25.649-.508.849-.775zm48.249-14.901v31.45h-4.4v-14h-18.199v14h-4.4v-31.45h4.4v13.1h18.199v-13.1h4.4zm40.5 0v31.55h-4.4v-24.15l-18.5 24.15h-4.05v-31.55h4.4v23.7l18.35-23.7h4.2z" fill="#fff"/><path d="M337.98 11.666s-21.632.834-30.183 20.635c-3.097 7.173-11.438 13.032-11.438 13.032" fill="none" stroke="#f7931e" stroke-width="2" stroke-miterlimit="10"/><circle cx="297.179" cy="44.832" r="6.832" fill="none" stroke="#f7931e" stroke-width="3" stroke-miterlimit="10"/><circle cx="338.179" cy="35.832" r="15.745" fill="none" stroke="#f7931e" stroke-width="4" stroke-miterlimit="10"/><path fill="none" stroke="#f7931e" stroke-width="2" stroke-miterlimit="10" d="M337.847 7v29"/><path d="M328.396 10.772s-.263-.361-1.018-.493c-2.755-.479-6.254-.225-7.455-.049-.234.034-.678.316-.788.525-.199.377-.144 1.02-.079 1.437.037.238.103.64.341.677 0 0 .837.183 1.215-.045 1.905-1.149 5.55-1.445 5.55-1.445l1.986-.146a.266.266 0 0 0 .247-.266v-.195z" fill="#f7931e"/><path fill="none" stroke="#f7931e" stroke-width="2" stroke-miterlimit="10" d="M322.847 11v5"/><path d="M339.847 7s-2.458.208-4 0c-1.989-.269-4.125-1-4.125-1" fill="none" stroke="#f7931e" stroke-width="2" stroke-linecap="round" stroke-miterlimit="10"/><path fill="none" stroke="#f7931e" stroke-width=".5" stroke-miterlimit="10" d="M324.692 41.288l26.769-9.743m-24.296 14.027l21.822-18.311m-18.033 21.491l14.244-24.67m-9.595 26.362l4.946-28.054m0 28.054l-4.946-28.054m9.595 26.362l-14.244-24.67m18.033 21.49l-21.822-18.311m24.296 14.027l-26.769-9.743m27.625 4.623l-28.482.497"/><g opacity=".43"><path fill="none" d="M29.847 70h660v33h-660z"/><path d="M33.32 78.149c1.581-1.55 3.535-2.326 5.86-2.326.713 0 1.488.093 2.263.279.775.155 1.519.527 2.232 1.054s1.054 1.209 1.054 1.984v1.395h-1.953v-.899c0-.589-.403-1.054-1.209-1.395a5.93 5.93 0 0 0-2.387-.527c-1.706 0-3.163.589-4.31 1.768-1.147 1.147-1.736 2.666-1.736 4.526s.589 3.38 1.767 4.527c1.209 1.147 2.667 1.705 4.372 1.705 2.48 0 4.31-1.396 4.837-1.984l.186-.217.961 1.581c-.124.124-.217.279-.992.899-.992.775-2.729 1.581-5.116 1.643-2.325 0-4.279-.744-5.829-2.263-1.55-1.52-2.325-3.504-2.325-5.892 0-2.385.775-4.339 2.325-5.858zm24.149 0c1.582-1.55 3.535-2.326 5.829-2.326s4.248.775 5.829 2.326 2.387 3.473 2.387 5.767c0 2.325-.806 4.31-2.387 5.891s-3.535 2.356-5.829 2.356-4.248-.775-5.829-2.356-2.387-3.566-2.387-5.891c0-2.294.805-4.216 2.387-5.767zm1.519 10.294c1.179 1.209 2.604 1.83 4.31 1.83s3.131-.62 4.31-1.83c1.178-1.209 1.767-2.729 1.767-4.527 0-1.768-.589-3.225-1.767-4.403-1.179-1.209-2.604-1.798-4.31-1.798s-3.131.589-4.31 1.798c-1.178 1.178-1.767 2.635-1.767 4.403 0 1.799.589 3.318 1.767 4.527zm24.365-9.735c0-.465-.217-.682-.682-.682h-1.303v-1.83h2.202c1.333 0 1.891.559 1.891 1.892v11.193c0 .465.217.682.651.682h7.782V76.196h2.108v13.798h.589c1.333 0 1.86.558 1.86 1.798v3.721h-2.015v-3.039c0-.465-.217-.682-.651-.682H85.214c-1.333 0-1.86-.527-1.86-1.86V78.708zm26.227 13.084V78.708c0-.465-.217-.682-.651-.682h-1.302v-1.83h2.108c1.333 0 1.86.559 1.86 1.83v8.434c0 .589-.062 1.458-.093 2.046l-.031.403h.062c.093-.279.651-1.085 1.674-2.45l7.659-10.263h2.046v13.085c0 .465.217.682.651.682h1.271v1.83h-2.078c-1.333 0-1.891-.527-1.891-1.86v-8.434c0-1.209.062-2.015.155-2.418h-.062c-.155.341-.713 1.147-1.674 2.418l-7.689 10.294h-2.015zm34.535-9.612h.868v-.217c0-3.194-1.116-4.372-4-4.372-.651 0-1.333.093-2.016.31-.682.217-1.023.558-1.023 1.054v.992h-2.046v-1.488c0-.992.899-1.798 2.046-2.14a9.76 9.76 0 0 1 3.007-.496c2.326 0 3.907.527 4.806 1.582.899 1.023 1.333 2.511 1.333 4.403v7.473c0 .465.217.682.682.682h1.303v1.83h-2.14c-1.333 0-1.86-.589-1.86-1.83l.031-1.178h-.063c.063 0-1.364 3.379-5.209 3.379-1.426 0-2.666-.403-3.721-1.209-1.023-.806-1.55-1.922-1.55-3.349.002-3.627 3.196-5.426 9.552-5.426zm-3.907 8.217c1.427 0 2.574-.589 3.442-1.799a6.558 6.558 0 0 0 1.333-4.03v-.713h-.899c-1.736 0-2.729.062-4.558.465-1.768.403-2.822 1.488-2.822 3.101 0 1.58 1.303 2.976 3.504 2.976zm17.669-.403c1.581 0 2.79-1.736 3.317-4.124.527-2.387.775-4.62.775-6.635v-1.209h-1.984v-1.83h9.146c1.333 0 1.892.559 1.892 1.892v11.193c0 .465.217.682.682.682h1.303v1.83h-2.202c-1.333 0-1.891-.558-1.891-1.891V78.708c0-.465-.217-.682-.683-.682h-4.217v1.24c0 .651-.031 1.364-.093 2.078-.093 1.395-.279 3.721-.868 5.488-.899 2.667-2.356 5.085-5.178 5.085v-1.923zm26.535-11.286c0-.465-.217-.682-.682-.682h-1.303v-1.83h2.202c1.24 0 1.86.589 1.891 1.799v4.217h3.442c3.255 0 5.302 1.829 5.302 4.806 0 2.853-2.078 4.775-5.302 4.775h-3.814c-1.24 0-1.736-.527-1.736-1.736V78.708zm2.108 10.758c0 .465.217.683.62.683h2.667c2.077 0 3.317-1.24 3.317-3.132 0-1.953-1.178-3.163-3.317-3.163h-3.287v5.612zm20.243 2.326V78.708c0-.465-.217-.682-.682-.682h-1.302v-1.83h2.202c1.333 0 1.891.559 1.891 1.892v4.775h9.084v-6.667h2.108v13.085c0 .465.217.682.683.682h1.302v1.83h-2.201c-1.333 0-1.892-.558-1.892-1.891v-5.178h-9.084v7.069h-2.109zm27.559-13.643c1.581-1.55 3.535-2.326 5.829-2.326s4.248.775 5.829 2.326 2.388 3.473 2.388 5.767c0 2.325-.807 4.31-2.388 5.891s-3.535 2.356-5.829 2.356-4.248-.775-5.829-2.356-2.388-3.566-2.388-5.891c0-2.294.807-4.216 2.388-5.767zm1.52 10.294c1.178 1.209 2.604 1.83 4.31 1.83s3.132-.62 4.31-1.83c1.179-1.209 1.768-2.729 1.768-4.527 0-1.768-.589-3.225-1.768-4.403-1.178-1.209-2.604-1.798-4.31-1.798s-3.132.589-4.31 1.798c-1.179 1.178-1.768 2.635-1.768 4.403 0 1.799.589 3.318 1.768 4.527zm23.589-4.495v-1.923h8.774v1.923h-8.774zm21.421 7.844V78.708c0-.465-.217-.682-.682-.682h-1.302v-1.83h2.201c1.333 0 1.892.559 1.892 1.892v4.496h1.55c.837 0 1.426-.248 1.798-.775l4.093-5.612h2.48l-4.527 6.14c-.403.589-.837.961-1.054 1.054l-.124.063v.062c.341.155.682.559 1.054 1.147l2.791 4.62c.341.527.589.682 1.426.682h.837v1.83h-1.458c-1.582 0-1.984-.279-2.698-1.55l-3.069-5.116c-.279-.465-.806-.682-1.612-.682h-1.488v7.348h-2.108zm21.39 5.395l-.372-.403.992-1.519c.031.093 1.023 1.147 2.325 1.147 1.209 0 2.171-.837 2.884-2.542l.93-2.14-5.488-12.991c-.217-.465-.559-.713-1.085-.713h-.31v-1.83h.961c1.396 0 1.86.311 2.388 1.706l4 9.736.558 1.674h.063c.155-.589.31-1.147.527-1.674l3.845-9.736c.527-1.395.961-1.706 2.418-1.706h.961v1.83h-.31c-.527 0-.899.248-1.085.713l-6.728 16.309c-.837 2.016-2.45 3.256-4.465 3.256-1.273-.001-2.544-.621-3.009-1.117zm23.746-7.193c1.581 0 2.79-1.736 3.317-4.124.527-2.387.775-4.62.775-6.635v-1.209h-1.984v-1.83h9.146c1.333 0 1.892.559 1.892 1.892v11.193c0 .465.217.682.682.682h1.303v1.83h-2.202c-1.333 0-1.891-.558-1.891-1.891V78.708c0-.465-.217-.682-.683-.682h-4.217v1.24c0 .651-.031 1.364-.093 2.078-.093 1.395-.279 3.721-.868 5.488-.899 2.667-2.356 5.085-5.178 5.085v-1.923zm26.536-11.286c0-.465-.218-.682-.683-.682h-1.302v-1.83h2.201c1.24 0 1.86.589 1.892 1.799v4.217h3.441c3.256 0 5.302 1.829 5.302 4.806 0 2.853-2.077 4.775-5.302 4.775h-3.813c-1.24 0-1.736-.527-1.736-1.736V78.708zm2.109 10.758c0 .465.217.683.62.683h2.666c2.077 0 3.317-1.24 3.317-3.132 0-1.953-1.178-3.163-3.317-3.163h-3.286v5.612zm22.722 2.326V78.056h-3.875c-.466 0-.683.217-.683.683v1.209H371v-1.922c0-1.333.526-1.83 1.891-1.83h11.038c1.364 0 1.892.496 1.892 1.83v1.922h-1.799v-1.209c0-.465-.217-.683-.682-.683h-3.876v13.736h-2.109zm17.514 5.395l-.372-.403.992-1.519c.031.093 1.023 1.147 2.325 1.147 1.209 0 2.171-.837 2.884-2.542l.931-2.14-5.488-12.991c-.217-.465-.559-.713-1.086-.713h-.31v-1.83h.961c1.396 0 1.86.311 2.388 1.706l4 9.736.558 1.674h.063c.155-.589.31-1.147.526-1.674l3.846-9.736c.526-1.395.961-1.706 2.418-1.706h.961v1.83h-.31c-.527 0-.899.248-1.085.713l-6.729 16.309c-.838 2.016-2.449 3.256-4.465 3.256-1.272-.001-2.543-.621-3.008-1.117zm26.753.806V78.708c0-.465-.217-.682-.683-.682h-1.302v-1.83h2.108c1.24 0 1.86.559 1.86 1.644l-.031 1.054h.063c.093-.155.124-.341.713-1.054.744-.961 2.232-2.016 4.682-2.016 2.077 0 3.721.744 4.931 2.264 1.24 1.52 1.859 3.473 1.859 5.922 0 2.45-.65 4.403-1.984 5.922-1.302 1.488-2.977 2.232-5.022 2.232-2.945 0-4.526-1.86-4.93-2.635l-.155-.311h-.063c.031.372.063.837.063 1.364v7.411h-2.109zm3.348-9.55c.868 1.24 2.077 1.86 3.628 1.86 1.457 0 2.636-.558 3.597-1.706.961-1.147 1.457-2.666 1.457-4.589 0-3.751-2.047-6.263-4.93-6.263-2.884 0-5.055 2.108-5.055 6.294.001 1.707.435 3.164 1.303 4.404zm22.754 3.349V78.708c0-.465-.217-.682-.682-.682h-1.303v-1.83h2.201c1.334 0 1.892.559 1.892 1.892v4.775h9.085v-6.667h2.108v13.085c0 .465.217.682.682.682h1.303v1.83h-2.202c-1.333 0-1.891-.558-1.891-1.891v-5.178h-9.085v7.069h-2.108zm26.722-13.084c0-.465-.217-.682-.682-.682h-1.303v-1.83h2.202c1.271 0 1.891.589 1.891 1.799v4.217h3.349c3.317 0 5.396 1.829 5.396 4.806 0 2.853-2.078 4.775-5.396 4.775h-3.721c-1.24 0-1.736-.527-1.736-1.736V78.708zm2.108 10.758c0 .465.217.683.62.683h2.543c2.201 0 3.41-1.24 3.41-3.132 0-1.984-1.178-3.163-3.41-3.163h-3.163v5.612zm11.411-13.27h2.108v13.085c0 .465.218.682.683.682h1.302v1.83h-2.201c-1.333 0-1.892-.558-1.892-1.891V76.196zm15.528 15.596V78.708c0-.465-.217-.682-.651-.682h-1.302v-1.83h2.108c1.333 0 1.86.559 1.86 1.83v8.434c0 .589-.062 1.458-.093 2.046l-.031.403h.063c.093-.279.65-1.085 1.674-2.45l7.658-10.263h2.047v13.085c0 .465.217.682.65.682h1.271v1.83h-2.077c-1.333 0-1.892-.527-1.892-1.86v-8.434c0-1.209.063-2.015.155-2.418h-.062c-.155.341-.714 1.147-1.675 2.418l-7.689 10.294h-2.014zm2.512-21.828h1.829v.434c-.154 2.853 4.682 2.853 4.559 0v-.434h1.798v.527c0 2.232-1.86 3.628-4.093 3.628-2.232 0-4.093-1.396-4.093-3.628v-.527zm40.67 21.828V78.025h-1.984v-1.83h12.96c1.334 0 1.892.559 1.892 1.892V89.28c0 .465.218.682.683.682h1.302v1.83h-2.201c-1.333 0-1.892-.558-1.892-1.891V78.708c0-.465-.217-.682-.682-.682h-7.969v13.767h-2.109zm26.288 6.201V78.708c0-.465-.217-.682-.682-.682h-1.303v-1.83h2.108c1.24 0 1.86.559 1.86 1.644l-.031 1.054h.063c.093-.155.124-.341.713-1.054.744-.961 2.232-2.016 4.682-2.016 2.078 0 3.721.744 4.93 2.264 1.24 1.52 1.861 3.473 1.861 5.922 0 2.45-.651 4.403-1.984 5.922-1.303 1.488-2.977 2.232-5.023 2.232-2.945 0-4.527-1.86-4.93-2.635l-.155-.311h-.062c.03.372.062.837.062 1.364v7.411h-2.109zm3.348-9.55c.868 1.24 2.077 1.86 3.628 1.86 1.457 0 2.635-.558 3.597-1.706.961-1.147 1.457-2.666 1.457-4.589 0-3.751-2.046-6.263-4.93-6.263s-5.054 2.108-5.054 6.294c.001 1.707.434 3.164 1.302 4.404zm23.56-10.294c1.581-1.55 3.534-2.326 5.828-2.326 2.295 0 4.248.775 5.83 2.326 1.581 1.55 2.387 3.473 2.387 5.767 0 2.325-.806 4.31-2.387 5.891-1.582 1.582-3.535 2.356-5.83 2.356-2.294 0-4.247-.775-5.828-2.356-1.582-1.582-2.388-3.566-2.388-5.891 0-2.294.806-4.216 2.388-5.767zm1.518 10.294c1.179 1.209 2.604 1.83 4.31 1.83 1.706 0 3.132-.62 4.311-1.83 1.178-1.209 1.768-2.729 1.768-4.527 0-1.768-.59-3.225-1.768-4.403-1.179-1.209-2.604-1.798-4.311-1.798-1.705 0-3.131.589-4.31 1.798-1.178 1.178-1.767 2.635-1.767 4.403.001 1.799.59 3.318 1.767 4.527zm25.017-10.387c1.488-1.488 3.317-2.232 5.488-2.232 2.077 0 3.658.683 4.806 2.078 1.147 1.364 1.736 3.07 1.736 5.116 0 .217-.031.559-.062 1.023h-11.969c.031 1.922.62 3.441 1.768 4.558 1.178 1.116 2.604 1.675 4.278 1.675 1.768 0 3.349-.62 4.744-1.892l.961 1.612c-1.457 1.333-3.721 2.17-5.798 2.17-2.325 0-4.279-.775-5.829-2.294s-2.325-3.473-2.325-5.86c.001-2.481.745-4.466 2.202-5.954zm9.891 4.403c-.124-3.132-1.984-4.899-4.434-4.899-2.697 0-4.868 1.83-5.364 4.899h9.798zm14.009 9.333V78.708c0-.465-.217-.682-.682-.682h-1.303v-1.83h2.201c1.334 0 1.892.559 1.892 1.892v4.496h1.55c.838 0 1.427-.248 1.799-.775l4.093-5.612h2.48l-4.526 6.14c-.403.589-.838.961-1.055 1.054l-.124.063v.062c.341.155.683.559 1.054 1.147l2.791 4.62c.341.527.589.682 1.426.682h.838v1.83h-1.457c-1.582 0-1.984-.279-2.698-1.55l-3.069-5.116c-.279-.465-.807-.682-1.612-.682h-1.488v7.348h-2.11zm27.808 0V78.056h-3.876c-.465 0-.682.217-.682.683v1.209h-1.799v-1.922c0-1.333.527-1.83 1.892-1.83h11.038c1.364 0 1.892.496 1.892 1.83v1.922h-1.798v-1.209c0-.465-.218-.683-.683-.683h-3.876v13.736h-2.108z" fill="#fff"/></g></svg>