<?xml version="1.0" encoding="iso-8859-1"?>
<!-- Generator: Adobe Illustrator 17.1.0, SVG Export Plug-In . SVG Version: 6.00 Build 0)  -->
<!DOCTYPE svg PUBLIC "-//W3C//DTD SVG 1.1//EN" "http://www.w3.org/Graphics/SVG/1.1/DTD/svg11.dtd">
<svg version="1.1" id="&#x421;&#x43B;&#x43E;&#x439;_1"
	 xmlns="http://www.w3.org/2000/svg" xmlns:xlink="http://www.w3.org/1999/xlink" x="0px" y="0px" viewBox="0 0 721.695 109"
	 style="enable-background:new 0 0 721.695 109;" xml:space="preserve">
<g>
	<g>
		<rect x="-20.47" y="19.439" style="fill:none;" width="762.195" height="70.377"/>
		<path style="fill:#FFFFFF;" d="M57.96,57.539l0.648-5.85H37.205l0.65,5.85h-4.5l-1.05-10.4h4.7c1.166-1.2,1.916-2.675,2.25-4.425
			c0.333-1.75,0.583-3.658,0.75-5.725c0.1-1.266,0.232-2.558,0.399-3.875c0.166-1.316,0.449-2.591,0.848-3.825
			c0.398-1.233,0.947-2.4,1.646-3.5c0.698-1.1,1.646-2.058,2.843-2.875c1.197-0.816,2.677-1.466,4.439-1.95
			c1.762-0.483,3.906-0.725,6.434-0.725h3.143v26.85h4.15l-1.5,10.4L57.96,57.539z M55.355,47.238v-22.65
			c-2.478,0.1-4.412,0.484-5.801,1.152c-1.39,0.669-2.445,1.57-3.165,2.707c-0.72,1.136-1.197,2.456-1.431,3.959
			c-0.234,1.503-0.419,3.157-0.552,4.96c-0.165,1.604-0.379,3.241-0.643,4.911c-0.264,1.67-0.725,3.274-1.384,4.811L55.355,47.238z"
			/>
		<path style="fill:#FFFFFF;" d="M97.905,51.688h-21.9v-31.4h21.05v4.45h-16.65v8.75c0.9,0.334,1.767,0.5,2.6,0.5
			c1.1,0,2.133-0.166,3.1-0.5c0.966-0.333,1.95-0.5,2.95-0.5c0.833,0,1.617,0.184,2.35,0.55v4.6c-0.867-0.3-1.684-0.45-2.45-0.45
			c-1.034,0-2.034,0.134-3,0.4c-0.967,0.267-2,0.4-3.1,0.4c-0.8,0-1.617-0.116-2.45-0.35v9.2h17.5V51.688z"/>
		<path style="fill:#FFFFFF;" d="M128.755,41.289c0.6,1.233,1.175,2.358,1.725,3.375c0.55,1.017,1.133,1.892,1.75,2.625
			c0.616,0.733,1.292,1.3,2.025,1.7c0.733,0.4,1.6,0.6,2.6,0.6v4.35c-1.7,0-3.175-0.333-4.425-1c-1.25-0.667-2.342-1.517-3.275-2.55
			c-0.934-1.033-1.742-2.183-2.425-3.45c-0.684-1.267-1.325-2.5-1.925-3.7c-0.267-0.6-0.55-1.191-0.85-1.775
			c-0.3-0.583-0.617-1.158-0.95-1.725c-0.5,0.367-1,0.675-1.5,0.925s-1,0.442-1.5,0.575c-0.367,0.167-0.809,0.284-1.325,0.35
			c-0.517,0.067-0.942,0.134-1.275,0.2v9.9h-4.35v-9.95c-0.472-0.1-0.885-0.241-1.239-0.425c-0.354-0.183-0.666-0.392-0.935-0.625
			c-0.775-0.566-1.365-1.275-1.77-2.125c-0.405-0.85-0.606-1.758-0.606-2.725v-0.3c0.067-1.1,0.396-2.108,0.985-3.025
			c0.589-0.917,1.373-1.625,2.35-2.125c0.169-0.066,0.363-0.15,0.582-0.25c0.219-0.1,0.48-0.183,0.784-0.25v-9.65h4.3v9.85
			c0.498,0.134,1.12,0.325,1.867,0.575s1.419,0.575,2.017,0.975c0.431,0.267,0.83,0.542,1.195,0.825
			c0.365,0.284,0.729,0.592,1.095,0.925c0.331-0.367,0.655-0.75,0.97-1.15c0.315-0.4,0.639-0.816,0.972-1.25
			c1.261-1.766,2.215-3.575,2.863-5.425c0.647-1.85,0.971-3.608,0.971-5.275h4.4c0,2.133-0.4,4.325-1.2,6.575
			c-0.8,2.25-1.95,4.459-3.45,6.625c-0.467,0.634-0.934,1.242-1.4,1.825c-0.467,0.583-0.95,1.125-1.45,1.625
			c0.466,0.7,0.891,1.417,1.275,2.15C128.012,39.822,128.387,40.556,128.755,41.289z M115.148,38.039c0.398,0,0.854-0.05,1.37-0.15
			c0.515-0.1,1.03-0.233,1.544-0.4c0.515-0.166,1.022-0.357,1.521-0.575c0.499-0.216,0.913-0.425,1.246-0.625
			c-0.698-0.633-1.604-1.191-2.716-1.675c-1.113-0.482-2.168-0.725-3.165-0.725c-0.598,0-1.088,0.2-1.47,0.6
			c-0.382,0.4-0.573,0.9-0.573,1.5c0,0.134,0.017,0.309,0.05,0.525c0.033,0.217,0.124,0.434,0.274,0.65
			c0.149,0.217,0.374,0.409,0.673,0.575C114.2,37.906,114.616,38.006,115.148,38.039z"/>
		<path style="fill:#FFFFFF;" d="M160.754,52.238c-2.267,0-4.392-0.425-6.375-1.275c-1.984-0.85-3.708-2.016-5.175-3.5
			c-1.467-1.483-2.633-3.208-3.5-5.175c-0.867-1.966-1.3-4.083-1.3-6.35c0-2.233,0.433-4.333,1.3-6.3
			c0.867-1.967,2.033-3.691,3.5-5.175c1.467-1.483,3.191-2.65,5.175-3.5c1.983-0.85,4.108-1.275,6.375-1.275
			c2.266,0,4.4,0.425,6.4,1.275s3.741,2.017,5.225,3.5c1.483,1.484,2.658,3.208,3.525,5.175c0.866,1.967,1.3,4.067,1.3,6.3
			c0,2.267-0.434,4.384-1.3,6.35c-0.867,1.967-2.042,3.692-3.525,5.175c-1.484,1.484-3.225,2.65-5.225,3.5
			S163.02,52.238,160.754,52.238z M160.779,24.039c-1.663,0-3.219,0.317-4.666,0.95c-1.447,0.634-2.711,1.484-3.792,2.55
			c-1.081,1.067-1.938,2.325-2.569,3.775s-0.948,2.992-0.948,4.625c0,1.667,0.316,3.225,0.948,4.675
			c0.632,1.45,1.488,2.709,2.569,3.775c1.082,1.067,2.346,1.917,3.792,2.55c1.447,0.634,3.002,0.95,4.666,0.95
			c1.696,0,3.276-0.316,4.74-0.95c1.464-0.633,2.736-1.483,3.817-2.55c1.081-1.066,1.929-2.325,2.544-3.775
			c0.616-1.45,0.923-3.008,0.923-4.675c0-1.633-0.308-3.175-0.923-4.625s-1.463-2.708-2.544-3.775
			c-1.082-1.066-2.353-1.917-3.817-2.55C164.055,24.355,162.475,24.039,160.779,24.039z"/>
		<path style="fill:#FFFFFF;" d="M203.654,19.988c3.8,0.234,6.625,1.417,8.475,3.55c1.85,2.133,2.775,5.017,2.775,8.65
			c0,1.5-0.325,2.892-0.975,4.175c-0.65,1.284-1.534,2.409-2.65,3.375c-1.117,0.967-2.417,1.725-3.9,2.275
			c-1.484,0.55-3.042,0.825-4.675,0.825h-6.9v8.85h-4.4v-26.45c-0.567-0.033-1.1-0.083-1.6-0.15c-0.5-0.066-1-0.2-1.5-0.4v-4.2
			c0.667,0.167,1.358,0.284,2.075,0.35c0.716,0.067,1.375,0.1,1.975,0.1c0.867,0,1.708-0.05,2.525-0.15
			c0.816-0.1,1.641-0.2,2.475-0.3c0.867-0.166,1.717-0.291,2.55-0.375c0.833-0.083,1.733-0.125,2.7-0.125H203.654z M210.953,31.962
			c0-0.897-0.083-1.785-0.25-2.666c-0.167-0.88-0.517-1.669-1.05-2.367c-0.534-0.697-1.3-1.279-2.3-1.744
			c-1-0.465-2.333-0.747-4-0.847c-0.934,0-2.042,0.034-3.325,0.1c-1.284,0.066-2.692,0.282-4.225,0.647v13.402h6.9
			c1.1,0,2.133-0.149,3.1-0.448c0.966-0.298,1.825-0.739,2.575-1.32s1.35-1.271,1.8-2.067S210.887,32.959,210.953,31.962z"/>
		<path style="fill:#FFFFFF;" d="M242.054,20.238c1.933,4.867,3.75,9.4,5.45,13.6c0.7,1.8,1.417,3.609,2.15,5.425
			c0.733,1.817,1.425,3.525,2.075,5.125c0.65,1.6,1.232,3.033,1.75,4.3c0.516,1.267,0.908,2.25,1.175,2.95h-4.65
			c-0.7-1.8-1.409-3.592-2.125-5.375c-0.717-1.783-1.442-3.625-2.175-5.525c-1.133-0.333-2.283-0.5-3.45-0.5
			c-0.867,0-1.725,0.067-2.575,0.2c-0.85,0.134-1.708,0.267-2.575,0.4l-3.85,0.6l-4.15,10.2h-4.7l4.15-10.4
			c-0.567-0.1-1.175-0.25-1.825-0.45c-0.65-0.2-1.292-0.466-1.925-0.8v-5c1,0.634,1.941,1.117,2.825,1.45
			c0.883,0.333,1.741,0.55,2.575,0.65l6.8-16.85H242.054z M236.254,36.63c0.066,0,0.108-0.008,0.125-0.024
			c0.016-0.016,0.058-0.025,0.125-0.025c0.866-0.165,1.766-0.321,2.7-0.469c0.933-0.148,1.883-0.223,2.85-0.223
			c0.267,0,0.55,0.008,0.85,0.025c0.3,0.017,0.583,0.042,0.85,0.075l-0.3-0.955l-3.85-9.595l-4.6,11.389
			c0.2-0.066,0.408-0.099,0.625-0.099C235.845,36.729,236.054,36.695,236.254,36.63z"/>
		<path style="fill:#FFFFFF;" d="M288.653,20.289c-0.034,1.1-0.208,2.125-0.525,3.075c-0.317,0.95-0.775,1.784-1.375,2.5
			c-0.6,0.717-1.358,1.284-2.275,1.7c-0.917,0.417-1.975,0.625-3.175,0.625c-0.967,0-1.9-0.091-2.8-0.275
			c-0.9-0.183-1.867-0.458-2.9-0.825v24.6h-4.4v-26.35c-0.734-0.266-1.5-0.483-2.3-0.65c-0.8-0.167-1.6-0.25-2.4-0.25
			c-0.867,0-1.659,0.15-2.375,0.45c-0.717,0.3-1.092,0.967-1.125,2h-4.25c0-1.1,0.208-2.066,0.625-2.9
			c0.417-0.833,0.975-1.525,1.675-2.075c0.7-0.55,1.525-0.966,2.475-1.25c0.95-0.283,1.975-0.425,3.075-0.425
			c1.667,0,3.158,0.192,4.475,0.575c1.316,0.384,2.533,0.809,3.65,1.275c1.116,0.467,2.2,0.892,3.25,1.275
			c1.05,0.384,2.141,0.575,3.275,0.575c0.633,0,1.15-0.066,1.55-0.2c0.4-0.133,0.708-0.341,0.925-0.625
			c0.216-0.283,0.366-0.658,0.45-1.125c0.083-0.466,0.142-1.033,0.175-1.7H288.653z"/>
		<path style="fill:#FFFFFF;" d="M379.803,19.988c3.801,0.234,6.625,1.417,8.476,3.55c1.85,2.133,2.774,5.017,2.774,8.65
			c0,1.5-0.324,2.892-0.975,4.175c-0.65,1.284-1.533,2.409-2.65,3.375c-1.117,0.967-2.417,1.725-3.899,2.275
			c-1.483,0.55-3.042,0.825-4.675,0.825h-6.9v8.85h-4.4v-26.45c-0.566-0.033-1.1-0.083-1.6-0.15c-0.5-0.066-1-0.2-1.5-0.4v-4.2
			c0.666,0.167,1.357,0.284,2.075,0.35c0.716,0.067,1.375,0.1,1.975,0.1c0.866,0,1.708-0.05,2.525-0.15
			c0.816-0.1,1.642-0.2,2.475-0.3c0.866-0.166,1.717-0.291,2.55-0.375c0.833-0.083,1.733-0.125,2.7-0.125H379.803z M387.103,31.962
			c0-0.897-0.084-1.785-0.25-2.666c-0.168-0.88-0.518-1.669-1.051-2.367c-0.533-0.697-1.3-1.279-2.3-1.744
			c-1-0.465-2.333-0.747-4-0.847c-0.934,0-2.042,0.034-3.325,0.1s-2.691,0.282-4.225,0.647v13.402h6.9c1.1,0,2.133-0.149,3.1-0.448
			c0.967-0.298,1.825-0.739,2.575-1.32s1.35-1.271,1.8-2.067S387.036,32.959,387.103,31.962z"/>
		<path style="fill:#FFFFFF;" d="M418.072,30.738c1.471,0,2.867,0.217,4.188,0.65c1.32,0.434,2.473,1.075,3.459,1.925
			s1.763,1.917,2.331,3.2s0.853,2.758,0.853,4.425c0,1.567-0.293,3.009-0.877,4.325c-0.585,1.317-1.387,2.45-2.405,3.4
			c-1.019,0.95-2.222,1.692-3.607,2.225c-1.387,0.533-2.865,0.8-4.436,0.8h-11.524v-15.95c-0.301,0-0.559-0.025-0.775-0.075
			c-0.217-0.05-0.425-0.1-0.625-0.15c-0.2-0.05-0.417-0.117-0.65-0.2c-0.233-0.083-0.517-0.175-0.85-0.275v-4.6
			c0.566,0.267,1.041,0.475,1.425,0.625c0.383,0.15,0.875,0.259,1.476,0.325v-11.15h4.399v11.05c1.805-0.233,3.316-0.383,4.537-0.45
			C416.209,30.772,417.236,30.738,418.072,30.738z M417.553,47.338c0.866,0,1.716-0.141,2.55-0.425
			c0.833-0.283,1.575-0.7,2.225-1.25c0.65-0.55,1.175-1.216,1.575-2c0.4-0.783,0.6-1.675,0.6-2.675c0-2-0.625-3.5-1.875-4.5
			s-2.824-1.5-4.725-1.5c-1.1,0-2.325,0.067-3.675,0.2c-1.351,0.134-2.525,0.267-3.525,0.4c-0.067,0-0.108,0.009-0.125,0.025
			c-0.017,0.018-0.059,0.025-0.125,0.025v11.7H417.553z M437.902,20.188v31.45h-4.4v-31.45H437.902z"/>
		<path style="fill:#FFFFFF;" d="M518.503,30.251c-0.534,0.936-1.134,1.871-1.801,2.806c-0.667,0.936-1.483,1.788-2.449,2.556
			c1,0.801,1.824,1.654,2.475,2.555c0.65,0.902,1.225,1.796,1.725,2.682c0.5,0.885,0.992,1.736,1.476,2.555
			c0.482,0.819,1.05,1.545,1.7,2.18c0.649,0.634,1.433,1.136,2.35,1.503c0.916,0.367,2.092,0.551,3.525,0.551v4.35
			c-2,0-3.692-0.267-5.075-0.8c-1.384-0.533-2.559-1.208-3.525-2.025c-0.967-0.816-1.774-1.725-2.425-2.725s-1.242-1.983-1.775-2.95
			c-0.5-0.9-0.983-1.708-1.449-2.425c-0.468-0.716-0.959-1.316-1.476-1.8c-0.517-0.483-1.117-0.858-1.8-1.125
			c-0.684-0.267-1.509-0.4-2.475-0.4v14h-4.301v-14c-0.967,0-1.8,0.134-2.5,0.4c-0.699,0.267-1.316,0.642-1.85,1.125
			c-0.533,0.483-1.033,1.083-1.5,1.8c-0.467,0.717-0.95,1.525-1.45,2.425c-0.533,0.967-1.125,1.95-1.774,2.95
			c-0.65,1-1.459,1.909-2.426,2.725c-0.967,0.817-2.142,1.492-3.524,2.025c-1.384,0.533-3.075,0.8-5.075,0.8v-4.35
			c1.433,0,2.625-0.191,3.575-0.576c0.95-0.384,1.75-0.885,2.399-1.503c0.65-0.618,1.208-1.345,1.676-2.18
			c0.466-0.835,0.957-1.695,1.475-2.581c0.517-0.885,1.092-1.779,1.725-2.681c0.633-0.901,1.45-1.754,2.45-2.556
			c-0.967-0.734-1.759-1.52-2.375-2.354c-0.617-0.835-1.167-1.679-1.649-2.53c-0.484-0.852-0.968-1.67-1.45-2.456
			c-0.483-0.785-1.059-1.47-1.726-2.054c-0.667-0.584-1.475-1.061-2.425-1.428s-2.158-0.552-3.625-0.552v-4.35
			c2.366,0,4.292,0.333,5.775,1c1.482,0.667,2.716,1.5,3.7,2.5c0.982,1,1.808,2.083,2.475,3.25c0.666,1.167,1.342,2.25,2.025,3.25
			c0.683,1,1.491,1.842,2.425,2.525c0.933,0.684,2.149,1.025,3.649,1.025v-13.1h4.301v13.1c1.5-0.033,2.716-0.392,3.649-1.075
			c0.933-0.683,1.75-1.525,2.45-2.525s1.383-2.075,2.05-3.225s1.483-2.225,2.45-3.225s2.191-1.825,3.675-2.475
			c1.483-0.65,3.392-0.975,5.726-0.975v4.4c-1.367,0-2.5,0.151-3.4,0.451c-0.9,0.301-1.684,0.719-2.35,1.253
			c-0.668,0.535-1.25,1.17-1.75,1.904C519.503,28.631,519.003,29.417,518.503,30.251z"/>
		<path style="fill:#FFFFFF;" d="M567.052,20.238v31.55h-4.4v-24.15l-18.5,24.15h-4.05v-31.55h4.4v23.7l18.35-23.7H567.052z"/>
		<path style="fill:#FFFFFF;" d="M603.352,33.838c1.267,1.167,2.166,2.35,2.7,3.55c0.532,1.2,0.8,2.4,0.8,3.6
			c0,1.734-0.375,3.292-1.125,4.675c-0.75,1.383-1.759,2.567-3.025,3.55c-1.267,0.984-2.742,1.734-4.425,2.25
			c-1.684,0.517-3.459,0.775-5.325,0.775c-1.767,0-3.509-0.262-5.225-0.783c-1.718-0.523-3.25-1.298-4.601-2.325
			c-1.35-1.027-2.434-2.299-3.25-3.816c-0.816-1.517-1.225-3.275-1.225-5.275c0-0.167,0.008-0.308,0.025-0.425
			c0.016-0.116,0.024-0.258,0.024-0.425v-0.25h4.4v0.5c-0.034,0.167-0.05,0.4-0.05,0.7c0,1.2,0.315,2.275,0.947,3.225
			c0.631,0.95,1.463,1.768,2.494,2.45c1.03,0.684,2.193,1.2,3.49,1.55c1.297,0.35,2.594,0.525,3.891,0.525
			c0.931,0,1.911-0.174,2.942-0.521c1.03-0.347,1.978-0.826,2.842-1.439c0.864-0.612,1.571-1.323,2.12-2.133
			c0.548-0.811,0.823-1.663,0.823-2.557c0-0.566-0.101-1.107-0.3-1.625c-0.2-0.516-0.534-1.058-1-1.625
			c-1.101,1.067-2.375,1.884-3.825,2.45c-1.45,0.567-2.959,0.85-4.525,0.85c-0.899,0-1.774-0.108-2.625-0.325
			c-0.85-0.216-1.617-0.558-2.3-1.025c-0.684-0.466-1.233-1.066-1.65-1.8c-0.417-0.733-0.625-1.6-0.625-2.6
			c0-1.1,0.217-2.033,0.65-2.8c0.433-0.766,1.008-1.383,1.725-1.85s1.525-0.808,2.426-1.025c0.899-0.216,1.816-0.325,2.75-0.325
			c1.232,0,2.375,0.15,3.425,0.45c1.05,0.3,2.058,0.717,3.024,1.25c0.133-0.4,0.25-0.758,0.351-1.075
			c0.1-0.316,0.149-0.642,0.149-0.975c0-0.866-0.191-1.633-0.574-2.3c-0.384-0.667-0.893-1.233-1.525-1.7
			c-0.634-0.466-1.358-0.816-2.175-1.05c-0.817-0.233-1.659-0.35-2.525-0.35c-0.967,0-1.942,0.108-2.925,0.325
			c-0.983,0.217-1.884,0.592-2.7,1.125c-0.817,0.534-1.483,1.225-2,2.075s-0.774,1.892-0.774,3.125h-4.551
			c0-1.9,0.351-3.525,1.051-4.875c0.699-1.35,1.616-2.466,2.75-3.35c1.133-0.883,2.433-1.533,3.899-1.95
			c1.467-0.417,2.95-0.625,4.45-0.625s2.958,0.208,4.375,0.625c1.416,0.417,2.666,1.025,3.75,1.825
			c1.083,0.8,1.958,1.775,2.625,2.925c0.666,1.15,1,2.458,1,3.925c0,0.767-0.059,1.542-0.175,2.325
			C604.11,32.047,603.818,32.906,603.352,33.838z M598.202,35.139c-0.2-0.233-0.5-0.467-0.899-0.7c-0.4-0.233-0.834-0.433-1.301-0.6
			c-0.467-0.167-0.958-0.308-1.475-0.425c-0.518-0.117-0.992-0.175-1.425-0.175c-0.733,0-1.442,0.175-2.125,0.525
			c-0.684,0.35-1.025,0.858-1.025,1.525c0,0.7,0.358,1.208,1.075,1.525c0.717,0.317,1.425,0.475,2.125,0.475
			c0.467,0,0.958-0.066,1.475-0.2c0.517-0.133,1.008-0.3,1.476-0.5c0.466-0.2,0.883-0.425,1.25-0.675
			C597.719,35.664,598.002,35.406,598.202,35.139z"/>
		<path style="fill:#FFFFFF;" d="M646.451,20.238v31.45h-4.4v-14h-18.199v14h-4.4v-31.45h4.4v13.1h18.199v-13.1H646.451z"/>
		<path style="fill:#FFFFFF;" d="M686.951,20.238v31.55h-4.4v-24.15l-18.5,24.15h-4.05v-31.55h4.4v23.7l18.35-23.7H686.951z"/>
	</g>
	<path style="fill:none;stroke:#F7931E;stroke-width:2;stroke-miterlimit:10;" d="M337.98,11.666c0,0-21.632,0.834-30.183,20.635
		c-3.097,7.173-11.438,13.032-11.438,13.032"/>
	<circle style="fill:none;stroke:#F7931E;stroke-width:3;stroke-miterlimit:10;" cx="297.179" cy="44.832" r="6.832"/>
	<circle style="fill:none;stroke:#F7931E;stroke-width:4;stroke-miterlimit:10;" cx="338.179" cy="35.832" r="15.745"/>
	<line style="fill:none;stroke:#F7931E;stroke-width:2;stroke-miterlimit:10;" x1="337.847" y1="7" x2="337.847" y2="36"/>
	<path style="fill:#F7931E;" d="M328.396,10.772c0,0-0.263-0.361-1.018-0.493c-2.755-0.479-6.254-0.225-7.455-0.049
		c-0.234,0.034-0.678,0.316-0.788,0.525c-0.199,0.377-0.144,1.02-0.079,1.437c0.037,0.238,0.103,0.64,0.341,0.677
		c0,0,0.837,0.183,1.215-0.045c1.905-1.149,5.55-1.445,5.55-1.445l1.986-0.146c0.139-0.01,0.247-0.126,0.247-0.266V10.772z"/>
	<line style="fill:none;stroke:#F7931E;stroke-width:2;stroke-miterlimit:10;" x1="322.847" y1="11" x2="322.847" y2="16"/>
	<path style="fill:none;stroke:#F7931E;stroke-width:2;stroke-linecap:round;stroke-miterlimit:10;" d="M339.847,7
		c0,0-2.458,0.208-4,0c-1.989-0.269-4.125-1-4.125-1"/>
	
		<line style="fill:none;stroke:#F7931E;stroke-width:0.5;stroke-miterlimit:10;" x1="324.692" y1="41.288" x2="351.461" y2="31.545"/>
	
		<line style="fill:none;stroke:#F7931E;stroke-width:0.5;stroke-miterlimit:10;" x1="327.165" y1="45.572" x2="348.987" y2="27.261"/>
	
		<line style="fill:none;stroke:#F7931E;stroke-width:0.5;stroke-miterlimit:10;" x1="330.954" y1="48.752" x2="345.198" y2="24.082"/>
	
		<line style="fill:none;stroke:#F7931E;stroke-width:0.5;stroke-miterlimit:10;" x1="335.603" y1="50.444" x2="340.549" y2="22.39"/>
	
		<line style="fill:none;stroke:#F7931E;stroke-width:0.5;stroke-miterlimit:10;" x1="340.549" y1="50.444" x2="335.603" y2="22.39"/>
	
		<line style="fill:none;stroke:#F7931E;stroke-width:0.5;stroke-miterlimit:10;" x1="345.198" y1="48.752" x2="330.954" y2="24.082"/>
	
		<line style="fill:none;stroke:#F7931E;stroke-width:0.5;stroke-miterlimit:10;" x1="348.987" y1="45.572" x2="327.165" y2="27.261"/>
	
		<line style="fill:none;stroke:#F7931E;stroke-width:0.5;stroke-miterlimit:10;" x1="351.461" y1="41.288" x2="324.692" y2="31.545"/>
	
		<line style="fill:none;stroke:#F7931E;stroke-width:0.5;stroke-miterlimit:10;" x1="352.317" y1="36.168" x2="323.835" y2="36.665"/>
	<g style="opacity:0.43;">
		<rect x="29.847" y="70" style="fill:none;" width="660" height="33"/>
		<path style="fill:#FFFFFF;" d="M33.32,78.149c1.581-1.55,3.535-2.326,5.86-2.326c0.713,0,1.488,0.093,2.263,0.279
			c0.775,0.155,1.519,0.527,2.232,1.054s1.054,1.209,1.054,1.984v1.395h-1.953v-0.899c0-0.589-0.403-1.054-1.209-1.395
			c-0.775-0.341-1.582-0.527-2.387-0.527c-1.706,0-3.163,0.589-4.31,1.768c-1.147,1.147-1.736,2.666-1.736,4.526
			s0.589,3.38,1.767,4.527c1.209,1.147,2.667,1.705,4.372,1.705c2.48,0,4.31-1.396,4.837-1.984l0.186-0.217l0.961,1.581
			c-0.124,0.124-0.217,0.279-0.992,0.899c-0.992,0.775-2.729,1.581-5.116,1.643c-2.325,0-4.279-0.744-5.829-2.263
			c-1.55-1.52-2.325-3.504-2.325-5.892C30.995,81.622,31.77,79.668,33.32,78.149z"/>
		<path style="fill:#FFFFFF;" d="M57.469,78.149c1.582-1.55,3.535-2.326,5.829-2.326s4.248,0.775,5.829,2.326
			s2.387,3.473,2.387,5.767c0,2.325-0.806,4.31-2.387,5.891s-3.535,2.356-5.829,2.356s-4.248-0.775-5.829-2.356
			s-2.387-3.566-2.387-5.891C55.082,81.622,55.887,79.7,57.469,78.149z M58.988,88.443c1.179,1.209,2.604,1.83,4.31,1.83
			s3.131-0.62,4.31-1.83c1.178-1.209,1.767-2.729,1.767-4.527c0-1.768-0.589-3.225-1.767-4.403c-1.179-1.209-2.604-1.798-4.31-1.798
			s-3.131,0.589-4.31,1.798c-1.178,1.178-1.767,2.635-1.767,4.403C57.221,85.715,57.81,87.234,58.988,88.443z"/>
		<path style="fill:#FFFFFF;" d="M83.353,78.708c0-0.465-0.217-0.682-0.682-0.682h-1.303v-1.83h2.202
			c1.333,0,1.891,0.559,1.891,1.892v11.193c0,0.465,0.217,0.682,0.651,0.682h7.782V76.196h2.108v13.798h0.589
			c1.333,0,1.86,0.558,1.86,1.798v3.721h-2.015v-3.039c0-0.465-0.217-0.682-0.651-0.682H85.214c-1.333,0-1.86-0.527-1.86-1.86
			V78.708z"/>
		<path style="fill:#FFFFFF;" d="M109.58,91.792V78.708c0-0.465-0.217-0.682-0.651-0.682h-1.302v-1.83h2.108
			c1.333,0,1.86,0.559,1.86,1.83v8.434c0,0.589-0.062,1.458-0.093,2.046l-0.031,0.403h0.062c0.093-0.279,0.651-1.085,1.674-2.45
			l7.659-10.263h2.046v13.085c0,0.465,0.217,0.682,0.651,0.682h1.271v1.83h-2.078c-1.333,0-1.891-0.527-1.891-1.86v-8.434
			c0-1.209,0.062-2.015,0.155-2.418h-0.062c-0.155,0.341-0.713,1.147-1.674,2.418l-7.689,10.294H109.58z"/>
		<path style="fill:#FFFFFF;" d="M144.115,82.18h0.868v-0.217c0-3.194-1.116-4.372-4-4.372c-0.651,0-1.333,0.093-2.016,0.31
			c-0.682,0.217-1.023,0.558-1.023,1.054v0.992h-2.046v-1.488c0-0.992,0.899-1.798,2.046-2.14c1.147-0.372,2.17-0.496,3.007-0.496
			c2.326,0,3.907,0.527,4.806,1.582c0.899,1.023,1.333,2.511,1.333,4.403v7.473c0,0.465,0.217,0.682,0.682,0.682h1.303v1.83h-2.14
			c-1.333,0-1.86-0.589-1.86-1.83l0.031-1.178h-0.063c0.063,0-1.364,3.379-5.209,3.379c-1.426,0-2.666-0.403-3.721-1.209
			c-1.023-0.806-1.55-1.922-1.55-3.349C134.565,83.979,137.759,82.18,144.115,82.18z M140.208,90.397
			c1.427,0,2.574-0.589,3.442-1.799c0.899-1.209,1.333-2.542,1.333-4.03v-0.713h-0.899c-1.736,0-2.729,0.062-4.558,0.465
			c-1.768,0.403-2.822,1.488-2.822,3.101C136.704,89.001,138.007,90.397,140.208,90.397z"/>
		<path style="fill:#FFFFFF;" d="M157.877,89.994c1.581,0,2.79-1.736,3.317-4.124c0.527-2.387,0.775-4.62,0.775-6.635v-1.209h-1.984
			v-1.83h9.146c1.333,0,1.892,0.559,1.892,1.892v11.193c0,0.465,0.217,0.682,0.682,0.682h1.303v1.83h-2.202
			c-1.333,0-1.891-0.558-1.891-1.891V78.708c0-0.465-0.217-0.682-0.683-0.682h-4.217v1.24c0,0.651-0.031,1.364-0.093,2.078
			c-0.093,1.395-0.279,3.721-0.868,5.488c-0.899,2.667-2.356,5.085-5.178,5.085V89.994z"/>
		<path style="fill:#FFFFFF;" d="M184.412,78.708c0-0.465-0.217-0.682-0.682-0.682h-1.303v-1.83h2.202
			c1.24,0,1.86,0.589,1.891,1.799v4.217h3.442c3.255,0,5.302,1.829,5.302,4.806c0,2.853-2.078,4.775-5.302,4.775h-3.814
			c-1.24,0-1.736-0.527-1.736-1.736V78.708z M186.52,89.466c0,0.465,0.217,0.683,0.62,0.683h2.667c2.077,0,3.317-1.24,3.317-3.132
			c0-1.953-1.178-3.163-3.317-3.163h-3.287V89.466z"/>
		<path style="fill:#FFFFFF;" d="M206.763,91.792V78.708c0-0.465-0.217-0.682-0.682-0.682h-1.302v-1.83h2.202
			c1.333,0,1.891,0.559,1.891,1.892v4.775h9.084v-6.667h2.108v13.085c0,0.465,0.217,0.682,0.683,0.682h1.302v1.83h-2.201
			c-1.333,0-1.892-0.558-1.892-1.891v-5.178h-9.084v7.069H206.763z"/>
		<path style="fill:#FFFFFF;" d="M234.322,78.149c1.581-1.55,3.535-2.326,5.829-2.326s4.248,0.775,5.829,2.326
			s2.388,3.473,2.388,5.767c0,2.325-0.807,4.31-2.388,5.891s-3.535,2.356-5.829,2.356s-4.248-0.775-5.829-2.356
			s-2.388-3.566-2.388-5.891C231.934,81.622,232.741,79.7,234.322,78.149z M235.842,88.443c1.178,1.209,2.604,1.83,4.31,1.83
			s3.132-0.62,4.31-1.83c1.179-1.209,1.768-2.729,1.768-4.527c0-1.768-0.589-3.225-1.768-4.403c-1.178-1.209-2.604-1.798-4.31-1.798
			s-3.132,0.589-4.31,1.798c-1.179,1.178-1.768,2.635-1.768,4.403C234.074,85.715,234.663,87.234,235.842,88.443z"/>
		<path style="fill:#FFFFFF;" d="M259.431,83.948v-1.923h8.774v1.923H259.431z"/>
		<path style="fill:#FFFFFF;" d="M280.852,91.792V78.708c0-0.465-0.217-0.682-0.682-0.682h-1.302v-1.83h2.201
			c1.333,0,1.892,0.559,1.892,1.892v4.496h1.55c0.837,0,1.426-0.248,1.798-0.775l4.093-5.612h2.48l-4.527,6.14
			c-0.403,0.589-0.837,0.961-1.054,1.054l-0.124,0.063v0.062c0.341,0.155,0.682,0.559,1.054,1.147l2.791,4.62
			c0.341,0.527,0.589,0.682,1.426,0.682h0.837v1.83h-1.458c-1.582,0-1.984-0.279-2.698-1.55l-3.069-5.116
			c-0.279-0.465-0.806-0.682-1.612-0.682h-1.488v7.348H280.852z"/>
		<path style="fill:#FFFFFF;" d="M302.242,97.187l-0.372-0.403l0.992-1.519c0.031,0.093,1.023,1.147,2.325,1.147
			c1.209,0,2.171-0.837,2.884-2.542l0.93-2.14l-5.488-12.991c-0.217-0.465-0.559-0.713-1.085-0.713h-0.31v-1.83h0.961
			c1.396,0,1.86,0.311,2.388,1.706l4,9.736l0.558,1.674h0.063c0.155-0.589,0.31-1.147,0.527-1.674l3.845-9.736
			c0.527-1.395,0.961-1.706,2.418-1.706h0.961v1.83h-0.31c-0.527,0-0.899,0.248-1.085,0.713l-6.728,16.309
			c-0.837,2.016-2.45,3.256-4.465,3.256C303.978,98.303,302.707,97.683,302.242,97.187z"/>
		<path style="fill:#FFFFFF;" d="M325.988,89.994c1.581,0,2.79-1.736,3.317-4.124c0.527-2.387,0.775-4.62,0.775-6.635v-1.209h-1.984
			v-1.83h9.146c1.333,0,1.892,0.559,1.892,1.892v11.193c0,0.465,0.217,0.682,0.682,0.682h1.303v1.83h-2.202
			c-1.333,0-1.891-0.558-1.891-1.891V78.708c0-0.465-0.217-0.682-0.683-0.682h-4.217v1.24c0,0.651-0.031,1.364-0.093,2.078
			c-0.093,1.395-0.279,3.721-0.868,5.488c-0.899,2.667-2.356,5.085-5.178,5.085V89.994z"/>
		<path style="fill:#FFFFFF;" d="M352.524,78.708c0-0.465-0.218-0.682-0.683-0.682h-1.302v-1.83h2.201
			c1.24,0,1.86,0.589,1.892,1.799v4.217h3.441c3.256,0,5.302,1.829,5.302,4.806c0,2.853-2.077,4.775-5.302,4.775h-3.813
			c-1.24,0-1.736-0.527-1.736-1.736V78.708z M354.633,89.466c0,0.465,0.217,0.683,0.62,0.683h2.666c2.077,0,3.317-1.24,3.317-3.132
			c0-1.953-1.178-3.163-3.317-3.163h-3.286V89.466z"/>
		<path style="fill:#FFFFFF;" d="M377.355,91.792V78.056h-3.875c-0.466,0-0.683,0.217-0.683,0.683v1.209H371v-1.922
			c0-1.333,0.526-1.83,1.891-1.83h11.038c1.364,0,1.892,0.496,1.892,1.83v1.922h-1.799v-1.209c0-0.465-0.217-0.683-0.682-0.683
			h-3.876v13.736H377.355z"/>
		<path style="fill:#FFFFFF;" d="M394.869,97.187l-0.372-0.403l0.992-1.519c0.031,0.093,1.023,1.147,2.325,1.147
			c1.209,0,2.171-0.837,2.884-2.542l0.931-2.14l-5.488-12.991c-0.217-0.465-0.559-0.713-1.086-0.713h-0.31v-1.83h0.961
			c1.396,0,1.86,0.311,2.388,1.706l4,9.736l0.558,1.674h0.063c0.155-0.589,0.31-1.147,0.526-1.674l3.846-9.736
			c0.526-1.395,0.961-1.706,2.418-1.706h0.961v1.83h-0.31c-0.527,0-0.899,0.248-1.085,0.713l-6.729,16.309
			c-0.838,2.016-2.449,3.256-4.465,3.256C396.605,98.303,395.334,97.683,394.869,97.187z"/>
		<path style="fill:#FFFFFF;" d="M421.622,97.993V78.708c0-0.465-0.217-0.682-0.683-0.682h-1.302v-1.83h2.108
			c1.24,0,1.86,0.559,1.86,1.644l-0.031,1.054h0.063c0.093-0.155,0.124-0.341,0.713-1.054c0.744-0.961,2.232-2.016,4.682-2.016
			c2.077,0,3.721,0.744,4.931,2.264c1.24,1.52,1.859,3.473,1.859,5.922c0,2.45-0.65,4.403-1.984,5.922
			c-1.302,1.488-2.977,2.232-5.022,2.232c-2.945,0-4.526-1.86-4.93-2.635l-0.155-0.311h-0.063c0.031,0.372,0.063,0.837,0.063,1.364
			v7.411H421.622z M424.97,88.443c0.868,1.24,2.077,1.86,3.628,1.86c1.457,0,2.636-0.558,3.597-1.706
			c0.961-1.147,1.457-2.666,1.457-4.589c0-3.751-2.047-6.263-4.93-6.263c-2.884,0-5.055,2.108-5.055,6.294
			C423.668,85.746,424.102,87.203,424.97,88.443z"/>
		<path style="fill:#FFFFFF;" d="M447.724,91.792V78.708c0-0.465-0.217-0.682-0.682-0.682h-1.303v-1.83h2.201
			c1.334,0,1.892,0.559,1.892,1.892v4.775h9.085v-6.667h2.108v13.085c0,0.465,0.217,0.682,0.682,0.682h1.303v1.83h-2.202
			c-1.333,0-1.891-0.558-1.891-1.891v-5.178h-9.085v7.069H447.724z"/>
		<path style="fill:#FFFFFF;" d="M474.446,78.708c0-0.465-0.217-0.682-0.682-0.682h-1.303v-1.83h2.202
			c1.271,0,1.891,0.589,1.891,1.799v4.217h3.349c3.317,0,5.396,1.829,5.396,4.806c0,2.853-2.078,4.775-5.396,4.775h-3.721
			c-1.24,0-1.736-0.527-1.736-1.736V78.708z M476.554,89.466c0,0.465,0.217,0.683,0.62,0.683h2.543c2.201,0,3.41-1.24,3.41-3.132
			c0-1.984-1.178-3.163-3.41-3.163h-3.163V89.466z M487.965,76.196h2.108v13.085c0,0.465,0.218,0.682,0.683,0.682h1.302v1.83h-2.201
			c-1.333,0-1.892-0.558-1.892-1.891V76.196z"/>
		<path style="fill:#FFFFFF;" d="M503.493,91.792V78.708c0-0.465-0.217-0.682-0.651-0.682h-1.302v-1.83h2.108
			c1.333,0,1.86,0.559,1.86,1.83v8.434c0,0.589-0.062,1.458-0.093,2.046l-0.031,0.403h0.063c0.093-0.279,0.65-1.085,1.674-2.45
			l7.658-10.263h2.047v13.085c0,0.465,0.217,0.682,0.65,0.682h1.271v1.83h-2.077c-1.333,0-1.892-0.527-1.892-1.86v-8.434
			c0-1.209,0.063-2.015,0.155-2.418h-0.062c-0.155,0.341-0.714,1.147-1.675,2.418l-7.689,10.294H503.493z M506.005,69.964h1.829
			v0.434c-0.154,2.853,4.682,2.853,4.559,0v-0.434h1.798v0.527c0,2.232-1.86,3.628-4.093,3.628c-2.232,0-4.093-1.396-4.093-3.628
			V69.964z"/>
		<path style="fill:#FFFFFF;" d="M546.675,91.792V78.025h-1.984v-1.83h12.96c1.334,0,1.892,0.559,1.892,1.892v11.193
			c0,0.465,0.218,0.682,0.683,0.682h1.302v1.83h-2.201c-1.333,0-1.892-0.558-1.892-1.891V78.708c0-0.465-0.217-0.682-0.682-0.682
			h-7.969v13.767H546.675z"/>
		<path style="fill:#FFFFFF;" d="M572.963,97.993V78.708c0-0.465-0.217-0.682-0.682-0.682h-1.303v-1.83h2.108
			c1.24,0,1.86,0.559,1.86,1.644l-0.031,1.054h0.063c0.093-0.155,0.124-0.341,0.713-1.054c0.744-0.961,2.232-2.016,4.682-2.016
			c2.078,0,3.721,0.744,4.93,2.264c1.24,1.52,1.861,3.473,1.861,5.922c0,2.45-0.651,4.403-1.984,5.922
			c-1.303,1.488-2.977,2.232-5.023,2.232c-2.945,0-4.527-1.86-4.93-2.635l-0.155-0.311h-0.062c0.03,0.372,0.062,0.837,0.062,1.364
			v7.411H572.963z M576.311,88.443c0.868,1.24,2.077,1.86,3.628,1.86c1.457,0,2.635-0.558,3.597-1.706
			c0.961-1.147,1.457-2.666,1.457-4.589c0-3.751-2.046-6.263-4.93-6.263s-5.054,2.108-5.054,6.294
			C575.01,85.746,575.443,87.203,576.311,88.443z"/>
		<path style="fill:#FFFFFF;" d="M599.871,78.149c1.581-1.55,3.534-2.326,5.828-2.326c2.295,0,4.248,0.775,5.83,2.326
			c1.581,1.55,2.387,3.473,2.387,5.767c0,2.325-0.806,4.31-2.387,5.891c-1.582,1.582-3.535,2.356-5.83,2.356
			c-2.294,0-4.247-0.775-5.828-2.356c-1.582-1.582-2.388-3.566-2.388-5.891C597.483,81.622,598.289,79.7,599.871,78.149z
			 M601.389,88.443c1.179,1.209,2.604,1.83,4.31,1.83c1.706,0,3.132-0.62,4.311-1.83c1.178-1.209,1.768-2.729,1.768-4.527
			c0-1.768-0.59-3.225-1.768-4.403c-1.179-1.209-2.604-1.798-4.311-1.798c-1.705,0-3.131,0.589-4.31,1.798
			c-1.178,1.178-1.767,2.635-1.767,4.403C599.623,85.715,600.212,87.234,601.389,88.443z"/>
		<path style="fill:#FFFFFF;" d="M626.406,78.056c1.488-1.488,3.317-2.232,5.488-2.232c2.077,0,3.658,0.683,4.806,2.078
			c1.147,1.364,1.736,3.07,1.736,5.116c0,0.217-0.031,0.559-0.062,1.023h-11.969c0.031,1.922,0.62,3.441,1.768,4.558
			c1.178,1.116,2.604,1.675,4.278,1.675c1.768,0,3.349-0.62,4.744-1.892l0.961,1.612c-1.457,1.333-3.721,2.17-5.798,2.17
			c-2.325,0-4.279-0.775-5.829-2.294s-2.325-3.473-2.325-5.86C624.205,81.529,624.949,79.544,626.406,78.056z M636.297,82.459
			c-0.124-3.132-1.984-4.899-4.434-4.899c-2.697,0-4.868,1.83-5.364,4.899H636.297z"/>
		<path style="fill:#FFFFFF;" d="M650.306,91.792V78.708c0-0.465-0.217-0.682-0.682-0.682h-1.303v-1.83h2.201
			c1.334,0,1.892,0.559,1.892,1.892v4.496h1.55c0.838,0,1.427-0.248,1.799-0.775l4.093-5.612h2.48l-4.526,6.14
			c-0.403,0.589-0.838,0.961-1.055,1.054l-0.124,0.063v0.062c0.341,0.155,0.683,0.559,1.054,1.147l2.791,4.62
			c0.341,0.527,0.589,0.682,1.426,0.682h0.838v1.83h-1.457c-1.582,0-1.984-0.279-2.698-1.55l-3.069-5.116
			c-0.279-0.465-0.807-0.682-1.612-0.682h-1.488v7.348H650.306z"/>
		<path style="fill:#FFFFFF;" d="M678.114,91.792V78.056h-3.876c-0.465,0-0.682,0.217-0.682,0.683v1.209h-1.799v-1.922
			c0-1.333,0.527-1.83,1.892-1.83h11.038c1.364,0,1.892,0.496,1.892,1.83v1.922h-1.798v-1.209c0-0.465-0.218-0.683-0.683-0.683
			h-3.876v13.736H678.114z"/>
	</g>
</g>
</svg>
